<svg xmlns="http://www.w3.org/2000/svg" width="65" height="52" viewBox="0 0 65 52">
    <g fill="none" fill-rule="evenodd">
        <g fill="#007672">
            <g>
                <path d="M65 15.416c-3.066.673-6.07 1.285-9.198 1.958.613-2.508 1.165-4.833 1.717-7.158-.061 0-.061 0-.123-.06-1.655 4.893-3.311 9.788-5.028 14.743-3.311-3.365-6.561-6.607-9.873-9.91 1.043-.368 1.963-.735 2.882-1.102 3.925-1.407 7.788-2.875 11.713-4.282.429-.184.735-.123 1.103.183 2.085 1.713 4.17 3.426 6.255 5.2.184.061.307.245.552.428zM25.08 26.061c2.882 2.447 5.642 4.833 8.462 7.219l.062-.061c-.123-.123-.246-.306-.368-.428-2.33-2.386-4.66-4.833-6.99-7.22-.307-.305-.369-.611-.246-.978 1.35-5.995 2.698-11.99 3.986-17.986 0-.061 0-.122-.123-.183-1.226 4.22-2.391 8.442-3.618 12.724C17.476 12.786 8.77 6.424 0 .122 0 .062.061 0 .061 0c1.472.306 2.882.55 4.354.856 5.335 1.04 10.731 2.08 16.066 3.12 3.066.612 6.132 1.163 9.26 1.836.306.06.674.306.92.55 7.051 6.118 14.042 12.174 21.094 18.292.122.122.245.245.429.367-.245.123-.43.245-.613.306-5.335 2.753-10.609 5.445-15.944 8.198-.49.244-.98.55-1.41.917-7.604 5.75-15.085 11.502-22.566 17.252-.061.061-.184.122-.368.122 4.6-8.564 9.198-17.129 13.797-25.755z" transform="translate(-688.000000, -192.000000) translate(688.000000, 192.000000)"/>
            </g>
        </g>
    </g>
</svg>
